<svg version="1.1" xmlns="http://www.w3.org/2000/svg"
    width="2400px" height="2400px" viewBox="0 0 2400 2400">
	<g>
		<text x="1200" y="41" font-weight="bold"> Ángel Iglesias Préstamo </text>
		<text x="1200" y="61" > Nacimiento: 2000-03-23 </text>
		<text x="1200" y="101" font-style="italic"> soy yo </text>
		<text x="1200" y="121" font-weight="bold"> Nacimiento </text>
		<text x="1200" y="141" > Lugar: Avilés </text>
		<text x="1200" y="161" > -5.93339 / 43.55869 / 139 </text>
		<text x="1200" y="181" > angel.jpg </text>
	</g>
	<line x1="1200" y1="190" x2="600" y2="400" />
	<g>
		<text x="600" y="441" font-weight="bold"> David Iglesias Serrano </text>
		<text x="600" y="461" > Nacimiento: 1963-07-23 </text>
		<text x="600" y="501" font-style="italic"> es mi padre </text>
		<text x="600" y="521" font-weight="bold"> Nacimiento </text>
		<text x="600" y="541" > Lugar: Avilés </text>
		<text x="600" y="561" > -6.03462 / 43.56357 / 139 </text>
		<text x="600" y="581" > padre.jpg </text>
		<text x="600" y="601" > padre.mp4 </text>
	</g>
	<line x1="600" y1="610" x2="300" y2="800" />
	<g>
		<text x="300" y="841" font-weight="bold"> María Dolores Serrano Menéndez </text>
		<text x="300" y="861" > Nacimiento: 1941-02-14 </text>
		<text x="300" y="901" font-style="italic"> es mi abuela-paterna </text>
		<text x="300" y="921" font-weight="bold"> Nacimiento </text>
		<text x="300" y="941" > Lugar: Candás </text>
		<text x="300" y="961" > -5.76812 / 43.58940 / 35 </text>
		<text x="300" y="981" > abuela-paterna.jpg </text>
	</g>
	<line x1="300" y1="990" x2="150" y2="1200" />
	<g>
		<text x="150" y="1241" font-weight="bold"> Otilia Menéndez Viña </text>
		<text x="150" y="1261" > Nacimiento: 1915-09-07 </text>
		<text x="150" y="1281" > Defunción: 1999-09-28 </text>
		<text x="150" y="1301" font-style="italic"> es mi bisabuela-paterna-materna </text>
		<text x="150" y="1321" font-weight="bold"> Nacimiento </text>
		<text x="150" y="1341" > Lugar: Avilés </text>
		<text x="150" y="1361" > -5.89922 / 43.54533 / 29 </text>
		<text x="150" y="1381" font-weight="bold"> Fallecimiento </text>
		<text x="150" y="1401" > Lugar: Avilés </text>
		<text x="150" y="1421" > -5.91428 / 43.54039 / 139 </text>
		<text x="150" y="1441" > bisabuela-paterna-materna.jpg </text>
	</g>
	<line x1="300" y1="990" x2="450" y2="1200" />
	<g>
		<text x="450" y="1241" font-weight="bold"> Marcelino Serrano Muñíz </text>
		<text x="450" y="1261" > Nacimiento: 1912-12-12 </text>
		<text x="450" y="1281" > Defunción: 1971-05-27 </text>
		<text x="450" y="1301" font-style="italic"> es mi bisabuelo-paterno-materno </text>
		<text x="450" y="1321" font-weight="bold"> Nacimiento </text>
		<text x="450" y="1341" > Lugar: Candás </text>
		<text x="450" y="1361" > -5.76614 / 43.59398 / 35 </text>
		<text x="450" y="1381" font-weight="bold"> Fallecimiento </text>
		<text x="450" y="1401" > Lugar: Avilés </text>
		<text x="450" y="1421" > -5.91934 / 43.56080 / 139 </text>
		<text x="450" y="1441" > bisabuelo-paterno-materno.jpg </text>
	</g>
	<line x1="600" y1="610" x2="900" y2="800" />
	<g>
		<text x="900" y="841" font-weight="bold"> David Iglesias Vallina </text>
		<text x="900" y="861" > Nacimiento: 1937-06-07 </text>
		<text x="900" y="881" > Defunción: 1981-05-24 </text>
		<text x="900" y="901" font-style="italic"> es mi abuelo-paterno </text>
		<text x="900" y="921" font-weight="bold"> Nacimiento </text>
		<text x="900" y="941" > Lugar: Gijón </text>
		<text x="900" y="961" > -5.67910 / 43.54326 / 3 </text>
		<text x="900" y="981" font-weight="bold"> Fallecimiento </text>
		<text x="900" y="1001" > Lugar: Avilés </text>
		<text x="900" y="1021" > -5.92263 / 43.54409 / 10 </text>
		<text x="900" y="1041" > abuelo-paterno1.jpg </text>
		<text x="900" y="1061" > abuelo-paterno2.jpg </text>
		<text x="900" y="1081" > abuelo-paterno.mp4 </text>
	</g>
	<line x1="900" y1="1090" x2="750" y2="1200" />
	<g>
		<text x="750" y="1241" font-weight="bold"> Emilio Iglesias </text>
		<text x="750" y="1261" > Nacimiento: 1905-03-09 </text>
		<text x="750" y="1281" > Defunción: 1945-04-30 </text>
		<text x="750" y="1301" font-style="italic"> es mi bisabuelo-paterno-paterno </text>
		<text x="750" y="1321" font-weight="bold"> Nacimiento </text>
		<text x="750" y="1341" > Lugar: Gijón </text>
		<text x="750" y="1361" > -5.65567 / 43.52622 / 3 </text>
		<text x="750" y="1381" font-weight="bold"> Fallecimiento </text>
		<text x="750" y="1401" > Lugar: Gijón </text>
		<text x="750" y="1421" > -5.63730 / 43.53650 / 2 </text>
		<text x="750" y="1441" > bisabuelo-paterno-paterno.jpg </text>
	</g>
	<line x1="1200" y1="190" x2="1800" y2="400" />
	<g>
		<text x="1800" y="441" font-weight="bold"> María Dolores Préstamo Díaz </text>
		<text x="1800" y="461" > Nacimiento: 1960-02-22 </text>
		<text x="1800" y="501" font-style="italic"> es mi madre </text>
		<text x="1800" y="521" font-weight="bold"> Nacimiento </text>
		<text x="1800" y="541" > Lugar: Avilés </text>
		<text x="1800" y="561" > -5.92557 / 43.54798 / 119 </text>
		<text x="1800" y="581" > madre.jpg </text>
	</g>
	<line x1="1800" y1="590" x2="1500" y2="800" />
	<g>
		<text x="1500" y="841" font-weight="bold"> Guadalupe Díaz Fernández </text>
		<text x="1500" y="861" > Nacimiento: 1918-03-21 </text>
		<text x="1500" y="881" > Defunción: 2010-09-21 </text>
		<text x="1500" y="901" font-style="italic"> es mi abuela-materna </text>
		<text x="1500" y="921" font-weight="bold"> Nacimiento </text>
		<text x="1500" y="941" > Lugar: Avilés </text>
		<text x="1500" y="961" > -5.92177 / 43.55833 / 3 </text>
		<text x="1500" y="981" font-weight="bold"> Fallecimiento </text>
		<text x="1500" y="1001" > Lugar: Avilés </text>
		<text x="1500" y="1021" > -5.92456 / 43.55681 / 4 </text>
		<text x="1500" y="1041" > abuela-materna.jpg </text>
	</g>
	<line x1="1500" y1="1050" x2="1350" y2="1200" />
	<g>
		<text x="1350" y="1241" font-weight="bold"> María Dolores Fernández </text>
		<text x="1350" y="1261" > Nacimiento: 1891-05-01 </text>
		<text x="1350" y="1281" > Defunción: 1918-09-04 </text>
		<text x="1350" y="1301" font-style="italic"> es mi bisabuela-materna-materna </text>
		<text x="1350" y="1321" font-weight="bold"> Nacimiento </text>
		<text x="1350" y="1341" > Lugar: Avilés </text>
		<text x="1350" y="1361" > -5.93063 / 43.55748 / 20 </text>
		<text x="1350" y="1381" font-weight="bold"> Fallecimiento </text>
		<text x="1350" y="1401" > Lugar: Avilés </text>
		<text x="1350" y="1421" > -5.93597 / 43.55287 / 45 </text>
		<text x="1350" y="1441" > bisabuela-materna-materna.jpg </text>
	</g>
	<line x1="1500" y1="1050" x2="1650" y2="1200" />
	<g>
		<text x="1650" y="1241" font-weight="bold"> José Díaz </text>
		<text x="1650" y="1261" > Nacimiento: 1892-06-25 </text>
		<text x="1650" y="1281" > Defunción: 1967-03-16 </text>
		<text x="1650" y="1301" font-style="italic"> es mi bisabuelo-materno-materno </text>
		<text x="1650" y="1321" font-weight="bold"> Nacimiento </text>
		<text x="1650" y="1341" > Lugar: Avilés </text>
		<text x="1650" y="1361" > -5.92327 / 43.55278 / 43 </text>
		<text x="1650" y="1381" font-weight="bold"> Nacimiento </text>
		<text x="1650" y="1401" > Lugar: Avilés </text>
		<text x="1650" y="1421" > -5.92970 / 43.54674 / 54 </text>
		<text x="1650" y="1441" > bisabuelo-paterno-materno.jpg </text>
	</g>
	<line x1="1800" y1="590" x2="2100" y2="800" />
	<g>
		<text x="2100" y="841" font-weight="bold"> Ángel Préstamo Cabranes </text>
		<text x="2100" y="861" > Nacimiento: 1913-02-01 </text>
		<text x="2100" y="881" > Defunción: 1959-12-25 </text>
		<text x="2100" y="901" font-style="italic"> es mi abuelo-materno </text>
		<text x="2100" y="921" font-weight="bold"> Nacimiento </text>
		<text x="2100" y="941" > Lugar: Torazo </text>
		<text x="2100" y="961" > -5.39995 / 43.39507 / 410 </text>
		<text x="2100" y="981" font-weight="bold"> Fallecimiento </text>
		<text x="2100" y="1001" > Lugar: Avilés </text>
		<text x="2100" y="1021" > -5.92600 / 43.54995 / 129 </text>
		<text x="2100" y="1041" > abuelo-materno.jpg </text>
	</g>
	<line x1="2100" y1="1050" x2="1950" y2="1200" />
	<g>
		<text x="1950" y="1241" font-weight="bold"> Ángela Cabranes </text>
		<text x="1950" y="1261" > Nacimiento: 1888-09-08 </text>
		<text x="1950" y="1281" > Defunción: 1940-02-27 </text>
		<text x="1950" y="1301" font-style="italic"> es mi bisabuela-materna-paterna </text>
		<text x="1950" y="1321" font-weight="bold"> Nacimiento </text>
		<text x="1950" y="1341" > Lugar: Torazo </text>
		<text x="1950" y="1361" > -5.40362 / 43.39448 / 410 </text>
		<text x="1950" y="1381" font-weight="bold"> Fallecimiento </text>
		<text x="1950" y="1401" > Lugar: Torazo </text>
		<text x="1950" y="1421" > -5.40258 / 43.39415 / 420 </text>
		<text x="1950" y="1441" > bisabuela-materna-paterna.jpg </text>
	</g>
	<line x1="2100" y1="1050" x2="2250" y2="1200" />
	<g>
		<text x="2250" y="1241" font-weight="bold"> Jesús Préstamo </text>
		<text x="2250" y="1261" > Nacimiento: 1892-02-02 </text>
		<text x="2250" y="1281" > Defunción: 1961-02-02 </text>
		<text x="2250" y="1301" font-style="italic"> es mi bisabuelo-materno-paterno </text>
		<text x="2250" y="1321" font-weight="bold"> Nacimiento </text>
		<text x="2250" y="1341" > Lugar: Torazo </text>
		<text x="2250" y="1361" > -5.39995 / 43.39465 / 415 </text>
		<text x="2250" y="1381" font-weight="bold"> Fallecimiento </text>
		<text x="2250" y="1401" > Lugar: Torazo </text>
		<text x="2250" y="1421" > -5.39995 / 43.39507 / 410 </text>
		<text x="2250" y="1441" > bisabuelo-materno-paterno.jpg </text>
		<text x="2250" y="1461" > bisabuelo-materno-paterno.mp4 </text>
	</g>

    <style><![CDATA[
    text{
        dominant-baseline: middle;
        text-anchor: middle;
        font: 20 Verdana, Helvetica, Arial, sans-serif;
    }

    line {
        stroke:rgb(0,0,0);
        stroke-width:2;
    }
    ]]></style>
</svg>
    